<svg id="Слой_1" data-name="Слой 1" xmlns="http://www.w3.org/2000/svg" viewBox="0 0 529 436.75"><defs><style>.cls-1{fill:#ffeb3a;}.cls-2{fill:#4caf50;}</style></defs><title>iconfine</title><path class="cls-1" d="M436.43,56.29C436.44,74.9,421.7,91.37,400,97c-14.45-3.7-26.25-12.32-32.37-23.64V39.22C373.74,27.9,385.54,19.29,400,15.58,421.7,21.21,436.44,37.68,436.43,56.29Z"/><path d="M195.84,99H187.3a25.6,25.6,0,1,0,0,51.19h128a25.6,25.6,0,1,0,0-51.19H289.7a8.54,8.54,0,0,1,0-17.07h66.67a51.2,51.2,0,1,0,0-51.2H187.3a25.6,25.6,0,0,0,0,51.2h8.54a8.54,8.54,0,0,1,0,17.07Zm204.8-76.8A34.13,34.13,0,1,1,376.17,80a25.55,25.55,0,0,0,0-47.34A34.08,34.08,0,0,1,400.64,22.16ZM195.84,64.82H187.3a8.53,8.53,0,0,1,0-17.06H366.5a8.53,8.53,0,0,1,0,17.06H289.7a25.6,25.6,0,1,0,0,51.2h25.6a8.54,8.54,0,1,1,0,17.07h-128a8.54,8.54,0,0,1,0-17.07h8.54a25.6,25.6,0,0,0,0-51.2Z"/><path d="M460.44,73.36h51.21a8.54,8.54,0,0,0,0-17.07H460.44a8.54,8.54,0,0,0,0,17.07Z"/><path class="cls-2" d="M363.91,406.14a29.31,29.31,0,0,1-5.66,17.06H206.48V387.11a27.27,27.27,0,0,1,5.35-3.07,35.06,35.06,0,0,1,5.88,3.58,26.48,26.48,0,0,1,2.41-6.31,34.1,34.1,0,0,1,7.35-.77,35.39,35.39,0,0,1,21.72,7.08c3.3-14,18.42-24.18,36-24.14,10.18,0,19.9,3.45,26.77,9.56a27.52,27.52,0,0,1,8.5,12c.46-.5,1-1,1.47-1.45a42.91,42.91,0,0,1,15.74-9C353.55,379.73,363.94,392.24,363.91,406.14Z"/><path class="cls-2" d="M100.73,426H30.84a4.84,4.84,0,0,1-4.77-4.91v-36.6a29.78,29.78,0,0,1,4.87-3.63,29.58,29.58,0,0,1,5.44,4.22,38.17,38.17,0,0,1,2.2-7.35,28.61,28.61,0,0,1,6.58-.79,28,28,0,0,1,19.77,8.14,34.33,34.33,0,0,1,18.42-24.43,34.29,34.29,0,0,1,19.2,31S104,420.24,100.73,426Z"/><path class="cls-2" d="M205.67,418H115.91v-36.1a31,31,0,0,1,8.47-4.35,34,34,0,0,1,9,4.86,25.19,25.19,0,0,1,3-7.08h1a36.74,36.74,0,0,1,22.2,7.08c2.47-10.15,11.35-18.57,23.48-22.27,14.82,4.26,24.68,15.46,24.67,28C207.71,388.14,209.32,413,205.67,418Z"/><path d="M410.06,192.82H119.93a110.51,110.51,0,0,0-81.07,35.42,8.44,8.44,0,0,0-3.64,4A110.33,110.33,0,0,0,9,303.75V423.22a8.53,8.53,0,0,0,8.53,8.53H512.46a8.53,8.53,0,0,0,8.54-8.53V303.75A111.06,111.06,0,0,0,410.06,192.82Zm-52.9,221.86h-41V387.3a25.41,25.41,0,0,1,42.66,18.85A24.92,24.92,0,0,1,357.16,414.68Zm-134.83,0V391.45a17.47,17.47,0,0,1,20.27,2.32c.19.18.44.25.64.42a9.89,9.89,0,0,0,1.35.85,8.19,8.19,0,0,0,1.63.66c.25.07.44.24.7.29a3.86,3.86,0,0,0,.76,0,8.15,8.15,0,0,0,.86.16c.29,0,.58-.15.85-.17a8.38,8.38,0,0,0,1.71-.35,7.38,7.38,0,0,0,1.36-.57A8.1,8.1,0,0,0,254,394a5.7,5.7,0,0,0,.65-.44c.13-.19.26-.39.38-.6a7.76,7.76,0,0,0,.93-1.47,6.91,6.91,0,0,0,.64-1.57c.07-.24.23-.43.29-.67a21.33,21.33,0,0,1,42.21,4.12v21.33ZM145.1,375.32a40.63,40.63,0,0,0-25.17-1.6v-27.3h85.33v15.93a42.59,42.59,0,0,0-24-7.4A41.5,41.5,0,0,0,145.1,375.32ZM48,375a35.7,35.7,0,0,0-21.9-1.47V346.42h76.79v15A38.18,38.18,0,0,0,48,375ZM222.87,244a110.12,110.12,0,0,0-17.61,59.74v25.6H119.93v-25.6A93.5,93.5,0,0,1,141.44,244Zm76.26,117.44A38.17,38.17,0,0,0,244.24,375a35.73,35.73,0,0,0-21.91-1.47V346.42h76.8Zm0-57.7v25.6h-76.8v-25.6A93.5,93.5,0,0,1,243.84,244h72.89A110.19,110.19,0,0,0,299.13,303.75ZM330.2,227H262.44a93.3,93.3,0,0,1,53.76-17.07h35A111.46,111.46,0,0,0,330.2,227Zm-93.87,0H160a93.33,93.33,0,0,1,53.76-17.07h43.52A111.52,111.52,0,0,0,236.33,227Zm-102.4,0H66.17a93.33,93.33,0,0,1,53.76-17.07h35A111.84,111.84,0,0,0,133.93,227ZM47.58,244h72.89a110.12,110.12,0,0,0-17.61,59.74v25.6H26.07v-25.6A93.39,93.39,0,0,1,47.58,244ZM26.07,391.45a17.47,17.47,0,0,1,20.27,2.32c.19.18.44.25.63.42a9.42,9.42,0,0,0,1.36.85,8,8,0,0,0,1.63.66c.25.07.43.24.69.29a4,4,0,0,0,.77,0,8,8,0,0,0,.85.16c.3,0,.58-.15.85-.17a9.08,9.08,0,0,0,1.71-.34,7.74,7.74,0,0,0,1.39-.59A8.91,8.91,0,0,0,57.76,394c.23-.14.45-.3.67-.46s.23-.42.39-.61a9.17,9.17,0,0,0,.93-1.45,8.71,8.71,0,0,0,.64-1.58c.06-.24.23-.43.28-.67a21.33,21.33,0,0,1,42.19,4.12v21.33H26.07Zm93.86.19A21.94,21.94,0,0,1,143.64,394c.13.11.3.16.43.26a12.44,12.44,0,0,0,2.94,1.47,4.83,4.83,0,0,0,.52.23,4.92,4.92,0,0,0,.77,0,6.48,6.48,0,0,0,1,.17,1381.62,1381.62,0,0,0,2.59-.54,7.53,7.53,0,0,0,1.38-.56,8.14,8.14,0,0,0,1.64-1.2,6.41,6.41,0,0,0,.79-.58c.12-.13.14-.29.24-.42a7.91,7.91,0,0,0,.86-1.45,8.55,8.55,0,0,0,.68-1.59c0-.15.15-.27.19-.43A23.43,23.43,0,0,1,181.22,372a22.85,22.85,0,0,1,24,21.34v21.33H119.93Zm298.66,23H375.93V329.35a34.14,34.14,0,0,1,68.27,0v85.33Zm85.34,0H461.26V329.35a51.2,51.2,0,1,0-102.4,0v42.89a41.79,41.79,0,0,0-42.66-5.12V303.75a93.87,93.87,0,1,1,187.73,0Z"/><path d="M385,124.55v51.2a8.53,8.53,0,1,0,17.06,0v-51.2a8.53,8.53,0,1,0-17.06,0Z"/><path d="M447.21,121.09l36.21,36.2a8.54,8.54,0,0,0,12.06-12.06L459.28,109a8.54,8.54,0,0,0-12.07,12.07Z"/></svg>