<?xml version="1.0" encoding="utf-8"?>
<!-- Generated by IcoMoon.io -->
<!DOCTYPE svg PUBLIC "-//W3C//DTD SVG 1.1//EN" "http://www.w3.org/Graphics/SVG/1.1/DTD/svg11.dtd">
<svg version="1.1" xmlns="http://www.w3.org/2000/svg" xmlns:xlink="http://www.w3.org/1999/xlink" width="59" height="64" viewBox="0 0 59 64">
<path d="M22.857 54.857q0 1.857-1.357 3.214t-3.214 1.357-3.214-1.357-1.357-3.214 1.357-3.214 3.214-1.357 3.214 1.357 1.357 3.214zM54.857 54.857q0 1.857-1.357 3.214t-3.214 1.357-3.214-1.357-1.357-3.214 1.357-3.214 3.214-1.357 3.214 1.357 1.357 3.214zM59.429 16v18.286q0 0.857-0.589 1.518t-1.446 0.768l-37.286 4.357q0.464 2.143 0.464 2.5 0 0.571-0.857 2.286h32.857q0.929 0 1.607 0.679t0.679 1.607-0.679 1.607-1.607 0.679h-36.571q-0.929 0-1.607-0.679t-0.679-1.607q0-0.393 0.286-1.125t0.571-1.286 0.768-1.429 0.554-1.054l-6.321-29.393h-7.286q-0.929 0-1.607-0.679t-0.679-1.607 0.679-1.607 1.607-0.679h9.143q0.571 0 1.018 0.232t0.696 0.554 0.464 0.875 0.286 0.929 0.196 1.054 0.161 0.929h42.893q0.929 0 1.607 0.679t0.679 1.607z"></path>
</svg>
